<svg width="" height="" viewBox="65 0 48 48" fill="none" xmlns="http://www.w3.org/2000/svg">
<rect x="65" width="48" height="48" rx="24" fill="#FCFCFC"/>
<path d="M89 16C90.0609 16 91.0783 16.4214 91.8284 17.1716C92.5786 17.9217 93 18.9391 93 20C93 21.0609 92.5786 22.0783 91.8284 22.8284C91.0783 23.5786 90.0609 24 89 24C87.9391 24 86.9217 23.5786 86.1716 22.8284C85.4214 22.0783 85 21.0609 85 20C85 18.9391 85.4214 17.9217 86.1716 17.1716C86.9217 16.4214 87.9391 16 89 16ZM89 32C89 32 97 32 97 30C97 27.6 93.1 25 89 25C84.9 25 81 27.6 81 30C81 32 89 32 89 32Z" fill="#85AA9F" fill-opacity="0.7"/>
</svg>
